<svg width="15" height="15" viewBox="0 0 15 15" fill="none" xmlns="http://www.w3.org/2000/svg">
<path d="M7.23709 10.2063C8.02454 10.2063 8.77973 9.89344 9.33654 9.33664C9.89335 8.77983 10.2062 8.02464 10.2062 7.23719C10.2062 6.44975 9.89335 5.69455 9.33654 5.13775C8.77973 4.58094 8.02454 4.26813 7.23709 4.26813C6.44965 4.26813 5.69445 4.58094 5.13765 5.13775C4.58084 5.69455 4.26803 6.44975 4.26803 7.23719C4.26803 8.02464 4.58084 8.77983 5.13765 9.33664C5.69445 9.89344 6.44965 10.2063 7.23709 10.2063Z" stroke="white" stroke-width="1.1134" stroke-linecap="round" stroke-linejoin="round"/>
<path d="M0.556702 10.2062V4.26803C0.556702 3.28373 0.947716 2.33973 1.64373 1.64373C2.33973 0.947716 3.28373 0.556702 4.26803 0.556702H10.2062C11.1905 0.556702 12.1345 0.947716 12.8305 1.64373C13.5265 2.33973 13.9175 3.28373 13.9175 4.26803V10.2062C13.9175 11.1905 13.5265 12.1345 12.8305 12.8305C12.1345 13.5265 11.1905 13.9175 10.2062 13.9175H4.26803C3.28373 13.9175 2.33973 13.5265 1.64373 12.8305C0.947716 12.1345 0.556702 11.1905 0.556702 10.2062Z" stroke="white" stroke-width="1.1134"/>
<path d="M11.3196 3.16385L11.3286 3.15387" stroke="white" stroke-width="1.1134" stroke-linecap="round" stroke-linejoin="round"/>
</svg>
