<svg width="15" height="15" viewBox="0 0 15 15" fill="none" xmlns="http://www.w3.org/2000/svg">
<path d="M12.9559 0C13.3854 0 13.7974 0.170624 14.1011 0.474337C14.4048 0.778051 14.5754 1.18997 14.5754 1.61949V12.9559C14.5754 13.3854 14.4048 13.7974 14.1011 14.1011C13.7974 14.4048 13.3854 14.5754 12.9559 14.5754H1.61949C1.18997 14.5754 0.778051 14.4048 0.474337 14.1011C0.170624 13.7974 0 13.3854 0 12.9559V1.61949C0 1.18997 0.170624 0.778051 0.474337 0.474337C0.778051 0.170624 1.18997 0 1.61949 0H12.9559ZM12.551 12.551V8.2594C12.551 7.55929 12.2729 6.88785 11.7779 6.3928C11.2828 5.89775 10.6114 5.61963 9.91128 5.61963C9.22299 5.61963 8.42135 6.0407 8.03267 6.6723V5.77348H5.77348V12.551H8.03267V8.559C8.03267 7.9355 8.53471 7.42536 9.15821 7.42536C9.45887 7.42536 9.74722 7.5448 9.95982 7.7574C10.1724 7.97 10.2919 8.25834 10.2919 8.559V12.551H12.551ZM3.14181 4.50218C3.5026 4.50218 3.84862 4.35886 4.10374 4.10374C4.35886 3.84862 4.50218 3.5026 4.50218 3.14181C4.50218 2.38875 3.89487 1.77334 3.14181 1.77334C2.77887 1.77334 2.43079 1.91752 2.17416 2.17416C1.91752 2.43079 1.77334 2.77887 1.77334 3.14181C1.77334 3.89487 2.38875 4.50218 3.14181 4.50218ZM4.26736 12.551V5.77348H2.02436V12.551H4.26736Z" fill="white"/>
</svg>
